<svg id="elements" xmlns="http://www.w3.org/2000/svg" width="245" height="245" viewBox="0 0 245 245">
  <path id="Path_44" data-name="Path 44" d="M0,0H5V5H0ZM5,0h5V5H5Zm5,0h5V5H10Zm5,0h5V5H15Zm5,0h5V5H20Zm5,0h5V5H25Zm5,0h5V5H30ZM50,0h5V5H50Zm5,0h5V5H55Zm5,0h5V5H60Zm5,0h5V5H65ZM75,0h5V5H75Zm5,0h5V5H80Zm5,0h5V5H85Zm5,0h5V5H90Zm5,0h5V5H95Zm10,0h5V5h-5Zm10,0h5V5h-5Zm10,0h5V5h-5Zm10,0h5V5h-5Zm5,0h5V5h-5Zm5,0h5V5h-5Zm5,0h5V5h-5Zm5,0h5V5h-5Zm5,0h5V5h-5Zm20,0h5V5h-5Zm20,0h5V5h-5Zm10,0h5V5h-5Zm5,0h5V5h-5Zm5,0h5V5h-5Zm5,0h5V5h-5Zm5,0h5V5h-5Zm5,0h5V5h-5Zm5,0h5V5h-5ZM0,5H5v5H0ZM30,5h5v5H30ZM40,5h5v5H40Zm5,0h5v5H45ZM60,5h5v5H60ZM75,5h5v5H75Zm5,0h5v5H80Zm5,0h5v5H85ZM95,5h5v5H95Zm10,0h5v5h-5Zm5,0h5v5h-5Zm25,0h5v5h-5Zm5,0h5v5h-5Zm20,0h5v5h-5Zm10,0h5v5h-5Zm10,0h5v5h-5Zm10,0h5v5h-5Zm5,0h5v5h-5Zm5,0h5v5h-5Zm10,0h5v5h-5Zm30,0h5v5h-5ZM0,10H5v5H0Zm10,0h5v5H10Zm5,0h5v5H15Zm5,0h5v5H20Zm10,0h5v5H30Zm20,0h5v5H50Zm5,0h5v5H55Zm10,0h5v5H65Zm10,0h5v5H75Zm5,0h5v5H80Zm5,0h5v5H85Zm5,0h5v5H90Zm15,0h5v5h-5Zm20,0h5v5h-5Zm5,0h5v5h-5Zm5,0h5v5h-5Zm10,0h5v5h-5Zm5,0h5v5h-5Zm5,0h5v5h-5Zm5,0h5v5h-5Zm10,0h5v5h-5Zm25,0h5v5h-5Zm5,0h5v5h-5Zm10,0h5v5h-5Zm10,0h5v5h-5Zm5,0h5v5h-5Zm5,0h5v5h-5Zm10,0h5v5h-5ZM0,15H5v5H0Zm10,0h5v5H10Zm5,0h5v5H15Zm5,0h5v5H20Zm10,0h5v5H30Zm10,0h5v5H40Zm5,0h5v5H45Zm5,0h5v5H50Zm5,0h5v5H55Zm5,0h5v5H60Zm15,0h5v5H75Zm10,0h5v5H85Zm5,0h5v5H90Zm20,0h5v5h-5Zm5,0h5v5h-5Zm5,0h5v5h-5Zm5,0h5v5h-5Zm30,0h5v5h-5Zm10,0h5v5h-5Zm5,0h5v5h-5Zm5,0h5v5h-5Zm5,0h5v5h-5Zm15,0h5v5h-5Zm15,0h5v5h-5Zm10,0h5v5h-5Zm5,0h5v5h-5Zm5,0h5v5h-5Zm10,0h5v5h-5ZM0,20H5v5H0Zm10,0h5v5H10Zm5,0h5v5H15Zm5,0h5v5H20Zm10,0h5v5H30Zm15,0h5v5H45Zm5,0h5v5H50Zm10,0h5v5H60Zm5,0h5v5H65Zm15,0h5v5H80Zm10,0h5v5H90Zm10,0h5v5h-5Zm5,0h5v5h-5Zm5,0h5v5h-5Zm5,0h5v5h-5Zm5,0h5v5h-5Zm5,0h5v5h-5Zm5,0h5v5h-5Zm10,0h5v5h-5Zm5,0h5v5h-5Zm5,0h5v5h-5Zm10,0h5v5h-5Zm5,0h5v5h-5Zm10,0h5v5h-5Zm5,0h5v5h-5Zm30,0h5v5h-5Zm10,0h5v5h-5Zm5,0h5v5h-5Zm5,0h5v5h-5Zm10,0h5v5h-5ZM0,25H5v5H0Zm30,0h5v5H30Zm10,0h5v5H40Zm20,0h5v5H60Zm15,0h5v5H75Zm5,0h5v5H80Zm20,0h5v5h-5Zm10,0h5v5h-5Zm20,0h5v5h-5Zm5,0h5v5h-5Zm5,0h5v5h-5Zm20,0h5v5h-5Zm5,0h5v5h-5Zm5,0h5v5h-5Zm10,0h5v5h-5Zm10,0h5v5h-5Zm20,0h5v5h-5Zm30,0h5v5h-5ZM0,30H5v5H0Zm5,0h5v5H5Zm5,0h5v5H10Zm5,0h5v5H15Zm5,0h5v5H20Zm5,0h5v5H25Zm5,0h5v5H30Zm10,0h5v5H40Zm10,0h5v5H50Zm10,0h5v5H60Zm10,0h5v5H70Zm10,0h5v5H80Zm10,0h5v5H90Zm10,0h5v5h-5Zm10,0h5v5h-5Zm10,0h5v5h-5Zm10,0h5v5h-5Zm10,0h5v5h-5Zm10,0h5v5h-5Zm10,0h5v5h-5Zm10,0h5v5h-5Zm10,0h5v5h-5Zm10,0h5v5h-5Zm10,0h5v5h-5Zm10,0h5v5h-5Zm5,0h5v5h-5Zm5,0h5v5h-5Zm5,0h5v5h-5Zm5,0h5v5h-5Zm5,0h5v5h-5Zm5,0h5v5h-5ZM45,35h5v5H45Zm5,0h5v5H50Zm5,0h5v5H55Zm15,0h5v5H70Zm10,0h5v5H80Zm20,0h5v5h-5Zm10,0h5v5h-5Zm20,0h5v5h-5Zm5,0h5v5h-5Zm15,0h5v5h-5Zm10,0h5v5h-5Zm5,0h5v5h-5Zm10,0h5v5h-5Zm10,0h5v5h-5Zm5,0h5v5h-5Zm10,0h5v5h-5ZM0,40H5v5H0Zm5,0h5v5H5Zm5,0h5v5H10Zm5,0h5v5H15Zm5,0h5v5H20Zm10,0h5v5H30Zm5,0h5v5H35Zm5,0h5v5H40Zm15,0h5v5H55Zm10,0h5v5H65Zm15,0h5v5H80Zm25,0h5v5h-5Zm5,0h5v5h-5Zm5,0h5v5h-5Zm5,0h5v5h-5Zm5,0h5v5h-5Zm5,0h5v5h-5Zm5,0h5v5h-5Zm10,0h5v5h-5Zm10,0h5v5h-5Zm15,0h5v5h-5Zm5,0h5v5h-5Zm5,0h5v5h-5Zm10,0h5v5h-5Zm5,0h5v5h-5Zm5,0h5v5h-5Zm5,0h5v5h-5Zm10,0h5v5h-5Zm10,0h5v5h-5Zm10,0h5v5h-5ZM15,45h5v5H15Zm20,0h5v5H35Zm10,0h5v5H45Zm20,0h5v5H65Zm35,0h5v5h-5Zm5,0h5v5h-5Zm10,0h5v5h-5Zm10,0h5v5h-5Zm10,0h5v5h-5Zm10,0h5v5h-5Zm5,0h5v5h-5Zm10,0h5v5h-5Zm5,0h5v5h-5Zm15,0h5v5h-5Zm5,0h5v5h-5Zm10,0h5v5h-5Zm10,0h5v5h-5Zm5,0h5v5h-5Zm5,0h5v5h-5Zm5,0h5v5h-5Zm10,0h5v5h-5ZM0,50H5v5H0Zm5,0h5v5H5Zm15,0h5v5H20Zm5,0h5v5H25Zm5,0h5v5H30Zm5,0h5v5H35Zm5,0h5v5H40Zm5,0h5v5H45Zm15,0h5v5H60Zm5,0h5v5H65Zm5,0h5v5H70Zm5,0h5v5H75Zm5,0h5v5H80Zm5,0h5v5H85Zm10,0h5v5H95Zm5,0h5v5h-5Zm5,0h5v5h-5Zm25,0h5v5h-5Zm10,0h5v5h-5Zm30,0h5v5h-5Zm5,0h5v5h-5Zm5,0h5v5h-5Zm10,0h5v5h-5Zm10,0h5v5h-5Zm20,0h5v5h-5Zm15,0h5v5h-5Zm5,0h5v5h-5ZM0,55H5v5H0Zm10,0h5v5H10Zm10,0h5v5H20Zm20,0h5v5H40Zm10,0h5v5H50Zm5,0h5v5H55Zm5,0h5v5H60Zm10,0h5v5H70Zm5,0h5v5H75Zm5,0h5v5H80Zm25,0h5v5h-5Zm10,0h5v5h-5Zm10,0h5v5h-5Zm5,0h5v5h-5Zm10,0h5v5h-5Zm10,0h5v5h-5Zm5,0h5v5h-5Zm5,0h5v5h-5Zm5,0h5v5h-5Zm25,0h5v5h-5Zm5,0h5v5h-5Zm15,0h5v5h-5Zm10,0h5v5h-5Zm10,0h5v5h-5ZM0,60H5v5H0Zm10,0h5v5H10Zm15,0h5v5H25Zm5,0h5v5H30Zm5,0h5v5H35Zm10,0h5v5H45Zm5,0h5v5H50Zm10,0h5v5H60Zm5,0h5v5H65Zm5,0h5v5H70Zm40,0h5v5h-5Zm10,0h5v5h-5Zm5,0h5v5h-5Zm5,0h5v5h-5Zm5,0h5v5h-5Zm10,0h5v5h-5Zm5,0h5v5h-5Zm15,0h5v5h-5Zm10,0h5v5h-5Zm5,0h5v5h-5Zm10,0h5v5h-5Zm5,0h5v5h-5Zm5,0h5v5h-5Zm10,0h5v5h-5Zm5,0h5v5h-5Zm10,0h5v5h-5Zm5,0h5v5h-5Zm5,0h5v5h-5Zm5,0h5v5h-5ZM0,65H5v5H0Zm20,0h5v5H20Zm5,0h5v5H25Zm10,0h5v5H35Zm10,0h5v5H45Zm5,0h5v5H50Zm10,0h5v5H60Zm15,0h5v5H75Zm10,0h5v5H85Zm10,0h5v5H95Zm10,0h5v5h-5Zm15,0h5v5h-5Zm5,0h5v5h-5Zm15,0h5v5h-5Zm5,0h5v5h-5Zm5,0h5v5h-5Zm10,0h5v5h-5Zm25,0h5v5h-5Zm10,0h5v5h-5Zm10,0h5v5h-5Zm5,0h5v5h-5Zm5,0h5v5h-5Zm5,0h5v5h-5Zm5,0h5v5h-5Zm5,0h5v5h-5Zm10,0h5v5h-5ZM0,70H5v5H0Zm5,0h5v5H5Zm10,0h5v5H15Zm5,0h5v5H20Zm10,0h5v5H30Zm5,0h5v5H35Zm10,0h5v5H45Zm25,0h5v5H70Zm20,0h5v5H90Zm25,0h5v5h-5Zm10,0h5v5h-5Zm10,0h5v5h-5Zm20,0h5v5h-5Zm5,0h5v5h-5Zm5,0h5v5h-5Zm5,0h5v5h-5Zm5,0h5v5h-5Zm5,0h5v5h-5Zm15,0h5v5h-5Zm20,0h5v5h-5Zm25,0h5v5h-5ZM0,75H5v5H0Zm10,0h5v5H10Zm10,0h5v5H20Zm5,0h5v5H25Zm10,0h5v5H35Zm10,0h5v5H45Zm10,0h5v5H55Zm10,0h5v5H65Zm10,0h5v5H75Zm15,0h5v5H90Zm45,0h5v5h-5Zm5,0h5v5h-5Zm10,0h5v5h-5Zm5,0h5v5h-5Zm5,0h5v5h-5Zm5,0h5v5h-5Zm5,0h5v5h-5Zm5,0h5v5h-5Zm10,0h5v5h-5Zm5,0h5v5h-5Zm20,0h5v5h-5Zm10,0h5v5h-5Zm15,0h5v5h-5Zm5,0h5v5h-5ZM0,80H5v5H0Zm10,0h5v5H10Zm5,0h5v5H15Zm5,0h5v5H20Zm5,0h5v5H25Zm5,0h5v5H30Zm5,0h5v5H35Zm5,0h5v5H40Zm5,0h5v5H45Zm10,0h5v5H55Zm10,0h5v5H65Zm5,0h5v5H70Zm10,0h5v5H80Zm5,0h5v5H85Zm5,0h5v5H90Zm5,0h5v5H95Zm5,0h5v5h-5Zm10,0h5v5h-5Zm5,0h5v5h-5Zm5,0h5v5h-5Zm5,0h5v5h-5Zm20,0h5v5h-5Zm5,0h5v5h-5Zm5,0h5v5h-5Zm10,0h5v5h-5Zm5,0h5v5h-5Zm5,0h5v5h-5Zm5,0h5v5h-5Zm10,0h5v5h-5Zm10,0h5v5h-5Zm5,0h5v5h-5Zm10,0h5v5h-5Zm10,0h5v5h-5Zm5,0h5v5h-5Zm5,0h5v5h-5Zm5,0h5v5h-5ZM10,85h5v5H10Zm10,0h5v5H20Zm5,0h5v5H25Zm15,0h5v5H40Zm5,0h5v5H45Zm5,0h5v5H50Zm10,0h5v5H60Zm5,0h5v5H65Zm10,0h5v5H75Zm5,0h5v5H80Zm15,0h5v5H95Zm5,0h5v5h-5Zm5,0h5v5h-5Zm20,0h5v5h-5Zm10,0h5v5h-5Zm5,0h5v5h-5Zm5,0h5v5h-5Zm5,0h5v5h-5Zm5,0h5v5h-5Zm10,0h5v5h-5Zm15,0h5v5h-5Zm5,0h5v5h-5Zm20,0h5v5h-5Zm5,0h5v5h-5Zm10,0h5v5h-5Zm5,0h5v5h-5Zm5,0h5v5h-5Zm10,0h5v5h-5ZM0,90H5v5H0Zm10,0h5v5H10Zm5,0h5v5H15Zm5,0h5v5H20Zm5,0h5v5H25Zm5,0h5v5H30Zm5,0h5v5H35Zm10,0h5v5H45Zm10,0h5v5H55Zm5,0h5v5H60Zm15,0h5v5H75Zm5,0h5v5H80Zm5,0h5v5H85Zm5,0h5v5H90Zm15,0h5v5h-5Zm5,0h5v5h-5Zm10,0h5v5h-5Zm5,0h5v5h-5Zm5,0h5v5h-5Zm10,0h5v5h-5Zm5,0h5v5h-5Zm20,0h5v5h-5Zm5,0h5v5h-5Zm5,0h5v5h-5Zm5,0h5v5h-5Zm10,0h5v5h-5Zm40,0h5v5h-5Zm5,0h5v5h-5Zm5,0h5v5h-5ZM10,95h5v5H10Zm10,0h5v5H20Zm30,0h5v5H50Zm5,0h5v5H55Zm5,0h5v5H60Zm5,0h5v5H65Zm10,0h5v5H75Zm5,0h5v5H80Zm5,0h5v5H85Zm5,0h5v5H90Zm15,0h5v5h-5Zm15,0h5v5h-5Zm20,0h5v5h-5Zm5,0h5v5h-5Zm30,0h5v5h-5Zm10,0h5v5h-5Zm20,0h5v5h-5Zm5,0h5v5h-5Zm5,0h5v5h-5Zm15,0h5v5h-5Zm10,0h5v5h-5ZM0,100H5v5H0Zm5,0h5v5H5Zm5,0h5v5H10Zm5,0h5v5H15Zm15,0h5v5H30Zm5,0h5v5H35Zm5,0h5v5H40Zm5,0h5v5H45Zm5,0h5v5H50Zm10,0h5v5H60Zm15,0h5v5H75Zm10,0h5v5H85Zm15,0h5v5h-5Zm5,0h5v5h-5Zm5,0h5v5h-5Zm5,0h5v5h-5Zm5,0h5v5h-5Zm10,0h5v5h-5Zm25,0h5v5h-5Zm10,0h5v5h-5Zm10,0h5v5h-5Zm5,0h5v5h-5Zm10,0h5v5h-5Zm40,0h5v5h-5Zm5,0h5v5h-5Zm5,0h5v5h-5ZM0,105H5v5H0Zm10,0h5v5H10Zm30,0h5v5H40Zm5,0h5v5H45Zm5,0h5v5H50Zm5,0h5v5H55Zm5,0h5v5H60Zm5,0h5v5H65Zm15,0h5v5H80Zm5,0h5v5H85Zm20,0h5v5h-5Zm10,0h5v5h-5Zm5,0h5v5h-5Zm5,0h5v5h-5Zm25,0h5v5h-5Zm10,0h5v5h-5Zm20,0h5v5h-5Zm5,0h5v5h-5Zm10,0h5v5h-5Zm10,0h5v5h-5Zm25,0h5v5h-5Zm10,0h5v5h-5ZM0,110H5v5H0Zm20,0h5v5H20Zm5,0h5v5H25Zm5,0h5v5H30Zm5,0h5v5H35Zm5,0h5v5H40Zm15,0h5v5H55Zm5,0h5v5H60Zm10,0h5v5H70Zm5,0h5v5H75Zm5,0h5v5H80Zm10,0h5v5H90Zm10,0h5v5h-5Zm5,0h5v5h-5Zm5,0h5v5h-5Zm5,0h5v5h-5Zm5,0h5v5h-5Zm5,0h5v5h-5Zm5,0h5v5h-5Zm5,0h5v5h-5Zm5,0h5v5h-5Zm20,0h5v5h-5Zm5,0h5v5h-5Zm5,0h5v5h-5Zm10,0h5v5h-5Zm15,0h5v5h-5Zm5,0h5v5h-5Zm5,0h5v5h-5Zm5,0h5v5h-5Zm5,0h5v5h-5Zm5,0h5v5h-5Zm5,0h5v5h-5Zm5,0h5v5h-5Zm5,0h5v5h-5ZM0,115H5v5H0Zm5,0h5v5H5Zm5,0h5v5H10Zm10,0h5v5H20Zm20,0h5v5H40Zm10,0h5v5H50Zm10,0h5v5H60Zm5,0h5v5H65Zm15,0h5v5H80Zm10,0h5v5H90Zm10,0h5v5h-5Zm5,0h5v5h-5Zm5,0h5v5h-5Zm20,0h5v5h-5Zm5,0h5v5h-5Zm5,0h5v5h-5Zm10,0h5v5h-5Zm10,0h5v5h-5Zm10,0h5v5h-5Zm5,0h5v5h-5Zm10,0h5v5h-5Zm5,0h5v5h-5Zm5,0h5v5h-5Zm5,0h5v5h-5Zm20,0h5v5h-5Zm15,0h5v5h-5Zm5,0h5v5h-5ZM5,120h5v5H5Zm5,0h5v5H10Zm10,0h5v5H20Zm10,0h5v5H30Zm10,0h5v5H40Zm10,0h5v5H50Zm5,0h5v5H55Zm30,0h5v5H85Zm5,0h5v5H90Zm5,0h5v5H95Zm5,0h5v5h-5Zm5,0h5v5h-5Zm5,0h5v5h-5Zm10,0h5v5h-5Zm10,0h5v5h-5Zm20,0h5v5h-5Zm5,0h5v5h-5Zm15,0h5v5h-5Zm5,0h5v5h-5Zm5,0h5v5h-5Zm15,0h5v5h-5Zm5,0h5v5h-5Zm10,0h5v5h-5Zm10,0h5v5h-5Zm5,0h5v5h-5Zm5,0h5v5h-5Zm5,0h5v5h-5Zm5,0h5v5h-5ZM10,125h5v5H10Zm10,0h5v5H20Zm20,0h5v5H40Zm5,0h5v5H45Zm5,0h5v5H50Zm5,0h5v5H55Zm25,0h5v5H80Zm5,0h5v5H85Zm5,0h5v5H90Zm5,0h5v5H95Zm5,0h5v5h-5Zm10,0h5v5h-5Zm20,0h5v5h-5Zm5,0h5v5h-5Zm5,0h5v5h-5Zm5,0h5v5h-5Zm5,0h5v5h-5Zm5,0h5v5h-5Zm10,0h5v5h-5Zm15,0h5v5h-5Zm15,0h5v5h-5Zm5,0h5v5h-5Zm20,0h5v5h-5Zm5,0h5v5h-5Zm5,0h5v5h-5Zm10,0h5v5h-5ZM5,130h5v5H5Zm5,0h5v5H10Zm5,0h5v5H15Zm5,0h5v5H20Zm5,0h5v5H25Zm5,0h5v5H30Zm5,0h5v5H35Zm5,0h5v5H40Zm5,0h5v5H45Zm5,0h5v5H50Zm15,0h5v5H65Zm5,0h5v5H70Zm15,0h5v5H85Zm25,0h5v5h-5Zm5,0h5v5h-5Zm5,0h5v5h-5Zm5,0h5v5h-5Zm5,0h5v5h-5Zm10,0h5v5h-5Zm5,0h5v5h-5Zm10,0h5v5h-5Zm5,0h5v5h-5Zm5,0h5v5h-5Zm5,0h5v5h-5Zm25,0h5v5h-5Zm5,0h5v5h-5Zm5,0h5v5h-5Zm5,0h5v5h-5Zm5,0h5v5h-5Zm5,0h5v5h-5Zm15,0h5v5h-5ZM0,135H5v5H0Zm10,0h5v5H10Zm5,0h5v5H15Zm25,0h5v5H40Zm5,0h5v5H45Zm10,0h5v5H55Zm15,0h5v5H70Zm5,0h5v5H75Zm15,0h5v5H90Zm5,0h5v5H95Zm15,0h5v5h-5Zm5,0h5v5h-5Zm5,0h5v5h-5Zm15,0h5v5h-5Zm5,0h5v5h-5Zm10,0h5v5h-5Zm35,0h5v5h-5Zm5,0h5v5h-5Zm10,0h5v5h-5Zm5,0h5v5h-5Zm5,0h5v5h-5Zm10,0h5v5h-5Zm10,0h5v5h-5ZM0,140H5v5H0Zm10,0h5v5H10Zm15,0h5v5H25Zm5,0h5v5H30Zm20,0h5v5H50Zm5,0h5v5H55Zm10,0h5v5H65Zm5,0h5v5H70Zm5,0h5v5H75Zm10,0h5v5H85Zm30,0h5v5h-5Zm35,0h5v5h-5Zm30,0h5v5h-5Zm10,0h5v5h-5Zm5,0h5v5h-5Zm15,0h5v5h-5Zm5,0h5v5h-5Zm5,0h5v5h-5Zm15,0h5v5h-5ZM0,145H5v5H0Zm20,0h5v5H20Zm15,0h5v5H35Zm5,0h5v5H40Zm15,0h5v5H55Zm5,0h5v5H60Zm15,0h5v5H75Zm30,0h5v5h-5Zm10,0h5v5h-5Zm5,0h5v5h-5Zm10,0h5v5h-5Zm5,0h5v5h-5Zm5,0h5v5h-5Zm5,0h5v5h-5Zm5,0h5v5h-5Zm5,0h5v5h-5Zm5,0h5v5h-5Zm15,0h5v5h-5Zm30,0h5v5h-5Zm5,0h5v5h-5Zm5,0h5v5h-5Zm20,0h5v5h-5Zm5,0h5v5h-5ZM0,150H5v5H0Zm10,0h5v5H10Zm5,0h5v5H15Zm10,0h5v5H25Zm5,0h5v5H30Zm10,0h5v5H40Zm15,0h5v5H55Zm5,0h5v5H60Zm15,0h5v5H75Zm15,0h5v5H90Zm5,0h5v5H95Zm5,0h5v5h-5Zm10,0h5v5h-5Zm5,0h5v5h-5Zm5,0h5v5h-5Zm5,0h5v5h-5Zm45,0h5v5h-5Zm15,0h5v5h-5Zm5,0h5v5h-5Zm5,0h5v5h-5Zm5,0h5v5h-5Zm5,0h5v5h-5Zm5,0h5v5h-5Zm5,0h5v5h-5Zm10,0h5v5h-5Zm5,0h5v5h-5Zm5,0h5v5h-5ZM10,155h5v5H10Zm5,0h5v5H15Zm20,0h5v5H35Zm5,0h5v5H40Zm5,0h5v5H45Zm10,0h5v5H55Zm5,0h5v5H60Zm10,0h5v5H70Zm5,0h5v5H75Zm30,0h5v5h-5Zm5,0h5v5h-5Zm10,0h5v5h-5Zm10,0h5v5h-5Zm5,0h5v5h-5Zm5,0h5v5h-5Zm5,0h5v5h-5Zm5,0h5v5h-5Zm10,0h5v5h-5Zm10,0h5v5h-5Zm20,0h5v5h-5Zm5,0h5v5h-5Zm10,0h5v5h-5Zm30,0h5v5h-5ZM0,160H5v5H0Zm5,0h5v5H5Zm5,0h5v5H10Zm10,0h5v5H20Zm5,0h5v5H25Zm5,0h5v5H30Zm35,0h5v5H65Zm10,0h5v5H75Zm5,0h5v5H80Zm10,0h5v5H90Zm5,0h5v5H95Zm5,0h5v5h-5Zm5,0h5v5h-5Zm5,0h5v5h-5Zm10,0h5v5h-5Zm5,0h5v5h-5Zm10,0h5v5h-5Zm15,0h5v5h-5Zm5,0h5v5h-5Zm15,0h5v5h-5Zm5,0h5v5h-5Zm5,0h5v5h-5Zm10,0h5v5h-5Zm5,0h5v5h-5Zm30,0h5v5h-5Zm5,0h5v5h-5Zm5,0h5v5h-5ZM20,165h5v5H20Zm20,0h5v5H40Zm10,0h5v5H50Zm5,0h5v5H55Zm10,0h5v5H65Zm35,0h5v5h-5Zm5,0h5v5h-5Zm10,0h5v5h-5Zm5,0h5v5h-5Zm5,0h5v5h-5Zm5,0h5v5h-5Zm10,0h5v5h-5Zm5,0h5v5h-5Zm5,0h5v5h-5Zm10,0h5v5h-5Zm25,0h5v5h-5Zm20,0h5v5h-5Zm15,0h5v5h-5Zm10,0h5v5h-5Zm10,0h5v5h-5ZM0,170H5v5H0Zm10,0h5v5H10Zm15,0h5v5H25Zm5,0h5v5H30Zm5,0h5v5H35Zm5,0h5v5H40Zm15,0h5v5H55Zm5,0h5v5H60Zm15,0h5v5H75Zm5,0h5v5H80Zm5,0h5v5H85Zm25,0h5v5h-5Zm10,0h5v5h-5Zm15,0h5v5h-5Zm10,0h5v5h-5Zm10,0h5v5h-5Zm5,0h5v5h-5Zm10,0h5v5h-5Zm15,0h5v5h-5Zm10,0h5v5h-5Zm5,0h5v5h-5Zm5,0h5v5h-5Zm5,0h5v5h-5Zm10,0h5v5h-5Zm15,0h5v5h-5Zm5,0h5v5h-5ZM0,175H5v5H0Zm5,0h5v5H5Zm20,0h5v5H25Zm15,0h5v5H40Zm5,0h5v5H45Zm10,0h5v5H55Zm5,0h5v5H60Zm5,0h5v5H65Zm10,0h5v5H75Zm5,0h5v5H80Zm30,0h5v5h-5Zm5,0h5v5h-5Zm5,0h5v5h-5Zm5,0h5v5h-5Zm5,0h5v5h-5Zm15,0h5v5h-5Zm5,0h5v5h-5Zm5,0h5v5h-5Zm5,0h5v5h-5Zm5,0h5v5h-5Zm25,0h5v5h-5Zm10,0h5v5h-5Zm10,0h5v5h-5Zm15,0h5v5h-5ZM5,180h5v5H5Zm15,0h5v5H20Zm5,0h5v5H25Zm5,0h5v5H30Zm10,0h5v5H40Zm5,0h5v5H45Zm5,0h5v5H50Zm10,0h5v5H60Zm15,0h5v5H75Zm20,0h5v5H95Zm5,0h5v5h-5Zm5,0h5v5h-5Zm25,0h5v5h-5Zm20,0h5v5h-5Zm5,0h5v5h-5Zm10,0h5v5h-5Zm5,0h5v5h-5Zm5,0h5v5h-5Zm5,0h5v5h-5Zm10,0h5v5h-5Zm5,0h5v5h-5Zm5,0h5v5h-5Zm10,0h5v5h-5Zm10,0h5v5h-5Zm10,0h5v5h-5ZM5,185h5v5H5Zm5,0h5v5H10Zm5,0h5v5H15Zm5,0h5v5H20Zm15,0h5v5H35Zm5,0h5v5H40Zm10,0h5v5H50Zm5,0h5v5H55Zm10,0h5v5H65Zm20,0h5v5H85Zm5,0h5v5H90Zm5,0h5v5H95Zm20,0h5v5h-5Zm5,0h5v5h-5Zm5,0h5v5h-5Zm5,0h5v5h-5Zm5,0h5v5h-5Zm10,0h5v5h-5Zm5,0h5v5h-5Zm5,0h5v5h-5Zm10,0h5v5h-5Zm20,0h5v5h-5Zm10,0h5v5h-5Zm5,0h5v5h-5Zm10,0h5v5h-5Zm5,0h5v5h-5Zm15,0h5v5h-5Zm5,0h5v5h-5Zm5,0h5v5h-5ZM5,190h5v5H5Zm20,0h5v5H25Zm5,0h5v5H30Zm10,0h5v5H40Zm5,0h5v5H45Zm25,0h5v5H70Zm25,0h5v5H95Zm10,0h5v5h-5Zm5,0h5v5h-5Zm5,0h5v5h-5Zm5,0h5v5h-5Zm15,0h5v5h-5Zm25,0h5v5h-5Zm5,0h5v5h-5Zm5,0h5v5h-5Zm10,0h5v5h-5Zm15,0h5v5h-5Zm10,0h5v5h-5Zm5,0h5v5h-5Zm5,0h5v5h-5Zm15,0h5v5h-5ZM5,195h5v5H5Zm5,0h5v5H10Zm5,0h5v5H15Zm20,0h5v5H35Zm10,0h5v5H45Zm5,0h5v5H50Zm5,0h5v5H55Zm15,0h5v5H70Zm5,0h5v5H75Zm20,0h5v5H95Zm10,0h5v5h-5Zm5,0h5v5h-5Zm5,0h5v5h-5Zm25,0h5v5h-5Zm5,0h5v5h-5Zm5,0h5v5h-5Zm10,0h5v5h-5Zm15,0h5v5h-5Zm10,0h5v5h-5Zm15,0h5v5h-5Zm5,0h5v5h-5Zm10,0h5v5h-5Zm5,0h5v5h-5Zm15,0h5v5h-5Zm5,0h5v5h-5ZM0,200H5v5H0Zm5,0h5v5H5Zm5,0h5v5H10Zm20,0h5v5H30Zm10,0h5v5H40Zm5,0h5v5H45Zm5,0h5v5H50Zm5,0h5v5H55Zm5,0h5v5H60Zm15,0h5v5H75Zm10,0h5v5H85Zm5,0h5v5H90Zm20,0h5v5h-5Zm5,0h5v5h-5Zm5,0h5v5h-5Zm5,0h5v5h-5Zm5,0h5v5h-5Zm15,0h5v5h-5Zm5,0h5v5h-5Zm20,0h5v5h-5Zm10,0h5v5h-5Zm5,0h5v5h-5Zm15,0h5v5h-5Zm5,0h5v5h-5Zm5,0h5v5h-5Zm5,0h5v5h-5Zm5,0h5v5h-5Zm5,0h5v5h-5Zm10,0h5v5h-5Zm5,0h5v5h-5ZM40,205h5v5H40Zm5,0h5v5H45Zm50,0h5v5H95Zm10,0h5v5h-5Zm5,0h5v5h-5Zm20,0h5v5h-5Zm15,0h5v5h-5Zm5,0h5v5h-5Zm5,0h5v5h-5Zm5,0h5v5h-5Zm20,0h5v5h-5Zm5,0h5v5h-5Zm10,0h5v5h-5Zm5,0h5v5h-5Zm20,0h5v5h-5Zm20,0h5v5h-5ZM0,210H5v5H0Zm5,0h5v5H5Zm5,0h5v5H10Zm5,0h5v5H15Zm5,0h5v5H20Zm5,0h5v5H25Zm5,0h5v5H30Zm10,0h5v5H40Zm15,0h5v5H55Zm10,0h5v5H65Zm5,0h5v5H70Zm5,0h5v5H75Zm5,0h5v5H80Zm30,0h5v5h-5Zm10,0h5v5h-5Zm10,0h5v5h-5Zm15,0h5v5h-5Zm10,0h5v5h-5Zm15,0h5v5h-5Zm5,0h5v5h-5Zm10,0h5v5h-5Zm15,0h5v5h-5Zm10,0h5v5h-5Zm10,0h5v5h-5Zm15,0h5v5h-5ZM0,215H5v5H0Zm30,0h5v5H30Zm15,0h5v5H45Zm5,0h5v5H50Zm5,0h5v5H55Zm5,0h5v5H60Zm10,0h5v5H70Zm5,0h5v5H75Zm5,0h5v5H80Zm25,0h5v5h-5Zm5,0h5v5h-5Zm20,0h5v5h-5Zm5,0h5v5h-5Zm5,0h5v5h-5Zm5,0h5v5h-5Zm5,0h5v5h-5Zm10,0h5v5h-5Zm5,0h5v5h-5Zm10,0h5v5h-5Zm10,0h5v5h-5Zm5,0h5v5h-5Zm10,0h5v5h-5Zm20,0h5v5h-5Zm5,0h5v5h-5ZM0,220H5v5H0Zm10,0h5v5H10Zm5,0h5v5H15Zm5,0h5v5H20Zm10,0h5v5H30Zm10,0h5v5H40Zm5,0h5v5H45Zm5,0h5v5H50Zm5,0h5v5H55Zm5,0h5v5H60Zm5,0h5v5H65Zm5,0h5v5H70Zm5,0h5v5H75Zm5,0h5v5H80Zm20,0h5v5h-5Zm10,0h5v5h-5Zm5,0h5v5h-5Zm5,0h5v5h-5Zm5,0h5v5h-5Zm5,0h5v5h-5Zm5,0h5v5h-5Zm10,0h5v5h-5Zm5,0h5v5h-5Zm5,0h5v5h-5Zm10,0h5v5h-5Zm10,0h5v5h-5Zm5,0h5v5h-5Zm5,0h5v5h-5Zm10,0h5v5h-5Zm5,0h5v5h-5Zm5,0h5v5h-5Zm5,0h5v5h-5Zm5,0h5v5h-5Zm5,0h5v5h-5Zm5,0h5v5h-5ZM0,225H5v5H0Zm10,0h5v5H10Zm5,0h5v5H15Zm5,0h5v5H20Zm10,0h5v5H30Zm10,0h5v5H40Zm5,0h5v5H45Zm5,0h5v5H50Zm10,0h5v5H60Zm15,0h5v5H75Zm15,0h5v5H90Zm5,0h5v5H95Zm15,0h5v5h-5Zm5,0h5v5h-5Zm5,0h5v5h-5Zm10,0h5v5h-5Zm5,0h5v5h-5Zm5,0h5v5h-5Zm5,0h5v5h-5Zm5,0h5v5h-5Zm10,0h5v5h-5Zm15,0h5v5h-5Zm5,0h5v5h-5Zm5,0h5v5h-5Zm15,0h5v5h-5Zm10,0h5v5h-5Zm15,0h5v5h-5Zm15,0h5v5h-5ZM0,230H5v5H0Zm10,0h5v5H10Zm5,0h5v5H15Zm5,0h5v5H20Zm10,0h5v5H30Zm10,0h5v5H40Zm15,0h5v5H55Zm5,0h5v5H60Zm5,0h5v5H65Zm5,0h5v5H70Zm5,0h5v5H75Zm25,0h5v5h-5Zm10,0h5v5h-5Zm5,0h5v5h-5Zm5,0h5v5h-5Zm10,0h5v5h-5Zm5,0h5v5h-5Zm10,0h5v5h-5Zm10,0h5v5h-5Zm25,0h5v5h-5Zm10,0h5v5h-5Zm25,0h5v5h-5Zm10,0h5v5h-5Zm15,0h5v5h-5ZM0,235H5v5H0Zm30,0h5v5H30Zm10,0h5v5H40Zm5,0h5v5H45Zm5,0h5v5H50Zm10,0h5v5H60Zm5,0h5v5H65Zm10,0h5v5H75Zm35,0h5v5h-5Zm15,0h5v5h-5Zm10,0h5v5h-5Zm5,0h5v5h-5Zm10,0h5v5h-5Zm5,0h5v5h-5Zm5,0h5v5h-5Zm20,0h5v5h-5Zm15,0h5v5h-5ZM0,240H5v5H0Zm5,0h5v5H5Zm5,0h5v5H10Zm5,0h5v5H15Zm5,0h5v5H20Zm5,0h5v5H25Zm5,0h5v5H30Zm10,0h5v5H40Zm35,0h5v5H75Zm15,0h5v5H90Zm5,0h5v5H95Zm10,0h5v5h-5Zm5,0h5v5h-5Zm20,0h5v5h-5Zm25,0h5v5h-5Zm15,0h5v5h-5Zm5,0h5v5h-5Zm5,0h5v5h-5Zm10,0h5v5h-5Zm20,0h5v5h-5Zm15,0h5v5h-5Zm5,0h5v5h-5Zm10,0h5v5h-5Z"/>
</svg>
