<svg xmlns="http://www.w3.org/2000/svg" width="314.07" height="314.07" viewBox="0 0 314.07 314.07">
  <path id="spotify" d="M157.035,8A157.035,157.035,0,1,0,314.07,165.035,157.089,157.089,0,0,0,157.035,8ZM220.8,239.057c-2.659,0-4.306-.823-6.775-2.28-39.512-23.809-85.483-24.822-130.884-15.514-2.47.633-5.7,1.646-7.535,1.646a9.859,9.859,0,0,1-10-10c0-6.522,3.863-9.625,8.612-10.638,51.86-11.461,104.859-10.448,150.07,16.59,3.863,2.469,6.142,4.686,6.142,10.448a9.568,9.568,0,0,1-9.625,9.751Zm17.033-41.538c-3.293,0-5.509-1.456-7.788-2.659C190.468,171.43,131.454,162,78.961,176.243c-3.039.823-4.686,1.646-7.535,1.646A12.3,12.3,0,0,1,59.141,165.6c0-6.775,3.293-11.271,9.815-13.107a212.982,212.982,0,0,1,61.928-8.612c41.1,0,80.8,10.195,112.077,28.811,5.129,3.039,7.155,6.965,7.155,12.474A12.269,12.269,0,0,1,237.832,197.518Zm19.629-48.25c-3.293,0-5.319-.823-8.168-2.469-45.084-26.911-125.691-33.37-177.868-18.806-2.28.633-5.129,1.646-8.168,1.646A14.614,14.614,0,0,1,48.5,114.7c0-8.612,5.319-13.487,11.018-15.134,22.289-6.522,47.237-9.625,74.4-9.625,46.224,0,94.664,9.625,130.06,30.267,4.939,2.849,8.168,6.775,8.168,14.31a14.671,14.671,0,0,1-14.69,14.754Z" transform="translate(0 -8)" fill="#fff"/>
</svg>
