<svg xmlns="http://www.w3.org/2000/svg" width="231.989" height="278.38" viewBox="0 0 231.989 278.38">
  <path id="Path_3" data-name="Path 3" d="M321.724,291.91H306.435l.075-8.875a7.2,7.2,0,0,1,7.2-7.169h.98a7.213,7.213,0,0,1,7.214,7.169ZM264.4,272.89c-3.865,0-7.038,2.608-7.038,5.8v43.161c0,3.188,3.173,5.781,7.038,5.781,3.895,0,7.068-2.593,7.068-5.781V278.682C271.472,275.5,268.3,272.89,264.4,272.89Zm93.069-24.138v82.1c0,19.7-17.077,35.809-37.96,35.809H163.444c-20.887,0-37.96-16.116-37.96-35.809v-82.1c0-19.7,17.074-35.816,37.96-35.816H319.517C340.395,212.936,357.473,229.059,357.473,248.752ZM173.85,339.771l-.007-86.487,19.345.007V240.472l-51.573-.079v12.6l16.1.049v86.73H173.85Zm58-73.6H215.716v46.181c0,6.683.4,10.024-.022,11.2-1.317,3.581-7.214,7.383-9.508.389-.389-1.227-.045-4.924-.052-11.274l-.075-46.5H190.018l.06,45.765c.007,7.016-.161,12.247.052,14.627.393,4.2.247,9.1,4.15,11.884,7.252,5.235,21.163-.778,24.643-8.251l-.03,9.534,12.95.019V266.17Zm51.6,52.882-.03-38.439c-.015-14.653-10.971-23.427-25.856-11.573l.067-28.58-16.116.026-.079,98.637,13.25-.2,1.205-6.148C272.83,348.332,283.479,337.683,283.45,319.052Zm50.491-5.092-12.1.064c0,.483-.022,1.033-.03,1.639v6.75a6.6,6.6,0,0,1-6.608,6.552h-2.369a6.6,6.6,0,0,1-6.615-6.552V304.655h27.7V294.23c0-7.614-.2-15.229-.827-19.584-1.979-13.781-21.317-15.966-31.09-8.913a18.254,18.254,0,0,0-6.776,9.119q-2.059,5.945-2.054,16.247v22.918C293.178,352.115,339.452,346.73,333.941,313.96ZM271.895,189.524a10.907,10.907,0,0,0,3.88,4.9,11.27,11.27,0,0,0,6.6,1.83,10.231,10.231,0,0,0,6.174-1.927,14.742,14.742,0,0,0,4.531-5.788l-.307,6.331h17.979V118.408H296.6v59.513a5.9,5.9,0,0,1-11.8,0V118.408H270.033v51.573c0,6.571.116,10.952.314,13.175A22.514,22.514,0,0,0,271.895,189.524Zm-54.487-43.187q0-11.012,1.826-17.2a19.163,19.163,0,0,1,6.608-9.923q4.77-3.767,12.191-3.764a22.366,22.366,0,0,1,10.705,2.417,17.826,17.826,0,0,1,6.892,6.271,24.671,24.671,0,0,1,3.334,7.966,63.335,63.335,0,0,1,.9,12.52v19.341a105.394,105.394,0,0,1-.834,15.626,24.666,24.666,0,0,1-3.536,9.287,16.786,16.786,0,0,1-6.93,6.357,21.984,21.984,0,0,1-9.755,2.054,26.98,26.98,0,0,1-10.391-1.751,14.263,14.263,0,0,1-6.627-5.3,23.334,23.334,0,0,1-3.375-8.572,82.287,82.287,0,0,1-1-15.079V146.337Zm14.076,30.379c0,4.325,3.229,7.861,7.154,7.861s7.132-3.532,7.132-7.861v-40.71c0-4.325-3.207-7.861-7.132-7.861s-7.154,3.532-7.154,7.861Zm-49.762,20.553h16.969l.015-58.648L218.751,88.38H200.2L189.539,125.7l-10.81-37.421H160.372L181.7,138.655Z" transform="translate(-125.484 -88.283)" fill="#fff"/>
</svg>
